HIERARCHY
ROOT Hips
{
	OFFSET 0.00000 0.00000 0.00000
	CHANNELS 6 Xposition Yposition Zposition Zrotation Yrotation Xrotation 
	JOINT LHipJoint
	{
		OFFSET 0 0 0
		CHANNELS 3 Zrotation Yrotation Xrotation
		JOINT LeftHip
		{
			OFFSET 1.37324 -1.83837 0.85674
			CHANNELS 3 Zrotation Yrotation Xrotation
			JOINT LeftKnee
			{
				OFFSET 2.53826 -6.97383 0.00000
				CHANNELS 3 Zrotation Yrotation Xrotation
				JOINT LeftAnkle
				{
					OFFSET 2.65296 -7.28895 0.00000
					CHANNELS 3 Zrotation Yrotation Xrotation
					JOINT LeftToe
					{
						OFFSET 0.22100 -0.60718 2.29776
						CHANNELS 3 Zrotation Yrotation Xrotation
						End Site
						{
							OFFSET 0.00000 -0.00000 1.19228
						}
					}
				}
			}
		}
	}
	JOINT RHipJoint
	{
		OFFSET 0 0 0
		CHANNELS 3 Zrotation Yrotation Xrotation
		JOINT RightHip
		{
			OFFSET -1.30156 -1.83836 0.85673
			CHANNELS 3 Zrotation Yrotation Xrotation
			JOINT RightKnee
			{
				OFFSET -2.63627 -7.24310 0.00000
				CHANNELS 3 Zrotation Yrotation Xrotation
				JOINT RightAnkle
				{
					OFFSET -2.62024 -7.19904 0.00000
					CHANNELS 3 Zrotation Yrotation Xrotation
					JOINT RightToe
					{
						OFFSET -0.20765 -0.57052 2.42402
						CHANNELS 3 Zrotation Yrotation Xrotation
						End Site
						{
							OFFSET -0.00000 -0.00000 1.24980
						}
					}
				}
			}
		}
	}
	JOINT lowerback
	{
		OFFSET 0 0 0
		CHANNELS 3 Zrotation Yrotation Xrotation
		JOINT Chest
		{
			OFFSET 0.05739 2.14162 -0.22815
			CHANNELS 3 Zrotation Yrotation Xrotation
			JOINT Chest2
			{
				OFFSET 0.02798 2.14167 0.08145
				CHANNELS 3 Zrotation Yrotation Xrotation
				JOINT lowerneck
				{
					OFFSET 0 0 0
					CHANNELS 3 Zrotation Yrotation Xrotation
					JOINT Neck
					{
						OFFSET -0.07019 1.58903 0.32980
						CHANNELS 3 Zrotation Yrotation Xrotation
						JOINT Head
						{
							OFFSET -0.03205 1.65283 -0.21190
							CHANNELS 3 Zrotation Yrotation Xrotation
							End Site
							{
								OFFSET -0.00726 1.66788 -0.10849
							}
						}
					}
				}
				JOINT LeftCollar
				{
					OFFSET 0 0 0
					CHANNELS 3 Zrotation Yrotation Xrotation
					JOINT LeftShoulder
					{
						OFFSET 3.92858 0.97533 -0.07938
CHANNELS 3 Zrotation Xrotation Yrotation
						JOINT LeftElbow
						{
OFFSET 0 -5.583450 -0.000000
CHANNELS 3 Zrotation Xrotation Yrotation
							JOINT LeftWrist
							{
OFFSET 0 -3.710870 0.000000
CHANNELS 3 Zrotation Xrotation Yrotation
								JOINT lhand
								{
									OFFSET 0 0 0
CHANNELS 3 Zrotation Xrotation Yrotation
									JOINT LFingers
									{
OFFSET 0 -0.562320 -0.000000
CHANNELS 3 Zrotation Xrotation Yrotation
										End Site
										{
OFFSET 0 -0.453360 -0.000000
										}
									}
								}
								JOINT LThumb
								{
OFFSET 0 0.000000 0.000000
CHANNELS 3 Zrotation Xrotation Yrotation
									End Site
									{
OFFSET 0 -0.460280 0.460280
									}
								}
							}
						}
					}
				}
				JOINT RightCollar
				{
					OFFSET 0 0 0
					CHANNELS 3 Zrotation Yrotation Xrotation
					JOINT RightShoulder
					{
						OFFSET -3.89897 1.08887 -0.22589
CHANNELS 3 Zrotation Xrotation Yrotation
						JOINT RightElbow
						{
OFFSET 0 -5.203570 -0.000000
CHANNELS 3 Zrotation Xrotation Yrotation
							JOINT RightWrist
							{
OFFSET 0 -3.649370 0.000000
CHANNELS 3 Zrotation Xrotation Yrotation
								JOINT rhand
								{
									OFFSET 0 0 0
CHANNELS 3 Zrotation Xrotation Yrotation
									JOINT RFingers
									{
OFFSET 0 -0.618000 -0.000000
CHANNELS 3 Zrotation Xrotation Yrotation
										End Site
										{
OFFSET 0 -0.498240 -0.000000
										}
									}
								}
								JOINT RThumb
								{
OFFSET 0 0.000000 0.000000
CHANNELS 3 Zrotation Xrotation Yrotation
									End Site
									{
OFFSET 0 -0.505850 0.505850
									}
								}
							}
						}
					}
				}
			}
		}
	}
}
MOTION
Frames: 10
Frame Time: .0083333
2.5945 17.9926 15.9959 -3.2263 0.9548 2.8310 0.0000 0.0000 0.0000 -17.2741 -6.9433 -7.1444 2.5072 9.8509 28.4953 0.8608 -6.2103 -16.5441 0.0648 1.6422 4.5177 0.0000 0.0000 0.0000 23.9292 3.0884 -7.1279 -2.3818 -9.6198 27.7541 -0.9524 4.1983 -17.5133 -0.0794 -1.8180 5.0031 3.5371 -0.2285 3.0562 3.4350 0.0302 -2.9405 1.5731 -0.0415 -4.7625 0.0653 0.7813 -23.1146 -5.9886 2.8080 23.6549 -1.7740 0.4635 11.6833 0.0000 -0.0000 0.0000 -1.2661 8.9465 -24.4577 22.5230 -33.563 6.8727 8.3708 8.9638 -8.7138 0.0 0.0 0.0 -7.1250 0.0 0.0 -15.8549 38.3198 -2.6891 0.0000 -0.0000 0.0000 -1.8022 1.768 9.0986 -14.3446 -23.2251 -2.9626 -28.4135 13.5986 10.3353 0.0 0.0 0.0 7.1250 0.0 -0.0 -1.2316 41.6906 -0.1006
2.6019 17.9915 16.0060 -3.2520 0.9268 2.8852 0.0000 0.0000 0.0000 -17.2673 -6.9096 -7.1887 2.5109 9.8577 28.5171 0.8657 -6.2170 -16.5914 0.0635 1.6256 4.4719 0.0000 0.0000 0.0000 23.9316 3.1418 -7.1364 -2.3830 -9.6219 27.7609 -0.9552 4.2072 -17.5386 -0.0791 -1.8143 4.9928 3.5652 -0.2275 3.0976 3.4340 0.0361 -2.9523 1.5564 -0.0399 -4.7987 0.0621 0.7763 -23.1038 -5.9690 2.7925 23.5976 -1.7677 0.4603 11.6581 0.0000 0.0000 0.0000 -1.2556 8.9838 -24.4831 22.4352 -33.4653 6.8243 8.3597 8.998 -8.7308 0.0 0.0 0.0 -7.1250 0.0 0.0 -15.8683 38.3356 -2.6852 0.0000 0.0000 0.0000 -1.8426 1.7075 9.4232 -14.4653 -23.396 -3.0104 -28.4948 13.2832 10.2362 0.0 0.0 0.0 7.1250 0.0 -0.0 -1.3110 41.5872 -0.1104
2.6083 17.9898 16.0167 -3.2681 0.8805 2.9135 0.0000 0.0000 0.0000 -17.2717 -6.8594 -7.2022 2.5148 9.8647 28.5396 0.8704 -6.2216 -16.6370 0.0623 1.6110 4.4319 0.0000 0.0000 0.0000 23.9280 3.1852 -7.1128 -2.3830 -9.6221 27.7613 -0.9586 4.2179 -17.5706 -0.0789 -1.8117 4.9855 3.5733 -0.2221 3.1485 3.4340 0.0461 -2.9392 1.5514 -0.0353 -4.8140 0.0415 0.7682 -23.1623 -5.9431 2.7795 23.5568 -1.7563 0.4558 11.6525 0.0000 0.0000 0.0000 -1.2539 9.0153 -24.5122 22.3746 -33.3978 6.7909 8.2332 9.0235 -8.8427 0.0 0.0 0.0 -7.1250 0.0 0.0 -16.0003 38.4349 -2.6685 0.0000 0.0000 0.0000 -1.86 1.6258 9.6844 -14.5897 -23.5715 -3.06 -28.4572 13.0846 10.2775 0.0 0.0 0.0 7.1250 0.0 -0.0 -1.2747 41.63 -0.106
2.6164 17.9889 16.0265 -3.2479 0.8579 2.9514 0.0000 0.0000 0.0000 -17.3249 -6.8565 -7.2172 2.5196 9.8735 28.5681 0.8761 -6.2206 -16.6914 0.0632 1.6222 4.4626 0.0000 0.0000 0.0000 23.8668 3.1686 -7.1235 -2.3827 -9.6214 27.7591 -0.9600 4.2819 -17.5765 -0.0760 -1.7784 4.8935 3.5727 -0.2110 3.1738 3.4147 0.0604 -2.9148 1.5305 -0.0283 -4.8028 0.0129 0.7629 -23.2095 -5.8830 2.7620 23.4898 -1.7310 0.4540 11.6335 0.0000 -0.0000 0.0000 -1.2409 9.0208 -24.5666 22.3112 -33.327 6.756 8.1467 9.0477 -8.8252 0.0 0.0 0.0 -7.1250 0.0 0.0 -16.0682 38.4117 -2.6901 0.0000 -0.0000 0.0000 -1.8875 1.5263 9.9259 -14.7028 -23.7305 -3.1054 -28.5425 12.8144 10.21 0.0 0.0 0.0 7.1250 0.0 -0.0 -1.3555 41.5626 -0.115
2.6229 17.9880 16.0374 -3.2543 0.8306 2.9839 0.0000 0.0000 0.0000 -17.3447 -6.8470 -7.2278 2.5252 9.8836 28.6006 0.8817 -6.2164 -16.7449 0.0625 1.6129 4.4371 0.0000 0.0000 0.0000 23.8474 3.1785 -7.1077 -2.3810 -9.6182 27.7491 -0.9626 4.3106 -17.5987 -0.0743 -1.7590 4.8402 3.5629 -0.2136 3.2237 3.4200 0.0591 -2.9048 1.5418 -0.0286 -4.8209 0.0198 0.7691 -23.2524 -5.8969 2.7689 23.4262 -1.7353 0.4564 11.6181 -0.0000 -0.0000 0.0000 -1.2496 9.0457 -24.581 22.2302 -33.2362 6.7116 8.1968 9.0979 -8.837 0.0 0.0 0.0 -7.1250 0.0 0.0 -16.0294 38.4267 -2.677 -0.0000 -0.0000 0.0000 -1.9422 1.4278 10.2042 -14.7788 -23.8371 -3.136 -28.6279 12.4761 9.9874 0.0 0.0 0.0 7.1250 0.0 -0.0 -1.4458 41.3199 -0.1313
2.6307 17.9862 16.0480 -3.2845 0.8240 3.0149 0.0000 0.0000 0.0000 -17.3347 -6.8353 -7.2437 2.5300 9.8922 28.6285 0.8837 -6.2481 -16.7646 0.0629 1.6178 4.4504 0.0000 0.0000 0.0000 23.8479 3.1436 -7.1089 -2.3802 -9.6168 27.7446 -0.9661 4.3554 -17.6267 -0.0691 -1.6954 4.6645 3.6001 -0.2165 3.2613 3.4178 0.0595 -2.9035 1.5190 -0.0299 -4.8409 0.0433 0.7740 -23.2501 -5.8836 2.7588 23.3561 -1.7347 0.4574 11.5903 -0.0000 0.0000 0.0000 -1.2507 9.0785 -24.5679 22.1537 -33.1503 6.6697 8.1517 9.1767 -8.7841 0.0 0.0 0.0 -7.1250 0.0 0.0 -16.0541 38.3722 -2.7037 -0.0000 0.0000 0.0000 -1.9611 1.3972 10.4347 -14.8889 -23.9912 -3.1806 -28.5793 12.4283 10.1605 0.0 0.0 0.0 7.1250 0.0 -0.0 -1.3916 41.5105 -0.1198
2.6369 17.9856 16.0585 -3.3300 0.8191 3.0392 0.0000 0.0000 0.0000 -17.3045 -6.8287 -7.2574 2.5360 9.9030 28.6632 0.8875 -6.2641 -16.8006 0.0627 1.6162 4.4461 0.0000 0.0000 0.0000 23.8755 3.1569 -7.0830 -2.3778 -9.6123 27.7301 -0.9688 4.3708 -17.6512 -0.0703 -1.7108 4.7070 3.6266 -0.2271 3.3055 3.4310 0.0497 -2.8968 1.5189 -0.0356 -4.8593 0.0586 0.7831 -23.2512 -5.8676 2.7568 23.2829 -1.7304 0.4615 11.5622 -0.0000 0.0000 0.0000 -1.2891 9.1092 -24.4864 22.0639 -33.0492 6.6207 8.1111 9.3001 -8.8132 0.0 0.0 0.0 -7.1250 0.0 0.0 -16.0950 38.3974 -2.7007 -0.0000 0.0000 0.0000 -2.0071 1.3291 10.7145 -14.9540 -24.082 -3.2071 -28.7038 12.1459 9.9458 0.0 0.0 0.0 7.1250 0.0 -0.0 -1.5162 41.2806 -0.1391
2.6442 17.9849 16.0691 -3.2858 0.8021 3.0783 0.0000 0.0000 0.0000 -17.3824 -6.8296 -7.2739 2.5406 9.9114 28.6904 0.8926 -6.2653 -16.8492 0.0629 1.6179 4.4508 0.0000 0.0000 0.0000 23.7876 3.1273 -7.0944 -2.3764 -9.6096 27.7215 -0.9697 4.4382 -17.6532 -0.0687 -1.6912 4.6530 3.5842 -0.2219 3.3337 3.4186 0.0551 -2.8902 1.5295 -0.0317 -4.8684 0.0485 0.7844 -23.2511 -5.8567 2.7541 23.1999 -1.7237 0.4626 11.5301 0.0000 -0.0000 0.0000 -1.3169 9.1246 -24.4612 21.9828 -32.9576 6.5765 8.0412 9.3696 -8.8552 0.0 0.0 0.0 -7.1250 0.0 0.0 -16.1633 38.4331 -2.6982 0.0000 -0.0000 0.0000 -2.0499 1.2935 10.9411 -15.0633 -24.2343 -3.2519 -28.6635 12.0096 10.058 0.0 0.0 0.0 7.1250 0.0 -0.0 -1.4733 41.4033 -0.1307
2.6496 17.9837 16.0802 -3.3330 0.7840 3.1005 0.0000 0.0000 0.0000 -17.3503 -6.8252 -7.2737 2.5451 9.9194 28.7162 0.8976 -6.2618 -16.8969 0.0622 1.6088 4.4257 0.0000 0.0000 0.0000 23.8262 3.1656 -7.0557 -2.3743 -9.6056 27.7088 -0.9737 4.4207 -17.6926 -0.0655 -1.6511 4.5423 3.6224 -0.2065 3.3772 3.4180 0.0791 -2.8625 1.5056 -0.0210 -4.8642 0.0457 0.7748 -23.3502 -5.8178 2.7298 23.1613 -1.7126 0.4557 11.5325 -0.0000 0.0000 0.0000 -1.3089 9.1034 -24.473 21.9021 -32.8662 6.5326 8.0645 9.436 -8.8322 0.0 0.0 0.0 -7.1250 0.0 0.0 -16.1384 38.4125 -2.7023 -0.0000 0.0000 0.0000 -2.0655 1.1877 11.083 -15.1033 -24.2899 -3.2683 -28.6918 11.996 10.071 0.0 0.0 0.0 7.1250 0.0 -0.0 -1.4978 41.4209 -0.1323
2.6571 17.9819 16.0927 -3.3328 0.7702 3.1187 0.0000 0.0000 0.0000 -17.3872 -6.8281 -7.2469 2.5483 9.9253 28.7350 0.9029 -6.2553 -16.9472 0.0638 1.6292 4.4819 0.0000 0.0000 0.0000 23.7852 3.0956 -7.0481 -2.3737 -9.6046 27.7055 -0.9767 4.5179 -17.7112 -0.0655 -1.6509 4.5419 3.6279 -0.2085 3.4249 3.4145 0.0804 -2.8784 1.4993 -0.0211 -4.9081 0.0771 0.7858 -23.3033 -5.8393 2.7350 23.0958 -1.7237 0.4602 11.4995 0.0000 0.0000 0.0000 -1.3362 9.2076 -24.4094 21.8509 -32.8081 6.5049 7.96 9.4727 -8.7895 0.0 0.0 0.0 -7.1250 0.0 0.0 -16.2152 38.3636 -2.7361 0.0000 0.0000 0.0000 -2.1087 1.1786 11.3091 -15.1421 -24.3437 -3.2843 -28.7931 11.9025 10.0139 0.0 0.0 0.0 7.1250 0.0 -0.0 -1.5919 41.3665 -0.1427
